<?xml version="1.0" encoding="UTF-8"?>
<svg xmlns="http://www.w3.org/2000/svg" width="948" height="490" viewBox="0 0 948 490" role="img" aria-labelledby="title desc">
  <title id="title">VantagePoint logo traced vector</title>
  <desc id="desc">Vector trace of the supplied VantagePoint VP logo with wordmark and tagline.</desc>
  <path d="
    M 809 650 L 806 652 L 808 655 L 811 653 Z
    M 425 650 L 422 652 L 424 655 L 427 653 Z
    M 770 632 L 770 654 L 786 654 L 786 651 L 775 651 L 774 650 L 775 645 L 784 645 L 784 641 L 775 641 L 774 636 L 775 635 L 785 635 L 785 632 Z
    M 732 632 L 732 654 L 736 654 L 736 648 L 738 646 L 742 649 L 745 654 L 750 654 L 745 647 L 749 641 L 748 635 L 744 632 Z
    M 736 636 L 737 635 L 742 635 L 745 638 L 745 640 L 742 643 L 737 643 L 736 642 Z
    M 696 632 L 689 639 L 689 647 L 694 653 L 702 655 L 707 653 L 710 650 L 712 644 L 711 638 L 705 632 Z
    M 698 635 L 703 635 L 707 639 L 708 642 L 707 647 L 702 651 L 696 650 L 693 646 L 693 640 Z
    M 646 632 L 646 654 L 649 654 L 649 643 L 650 642 L 656 652 L 659 651 L 664 642 L 665 643 L 665 654 L 669 653 L 669 633 L 668 632 L 665 632 L 657 646 L 655 644 L 650 633 Z
    M 583 632 L 583 654 L 598 654 L 598 651 L 588 651 L 587 650 L 588 645 L 596 645 L 597 644 L 596 641 L 588 641 L 587 636 L 588 635 L 598 635 L 598 632 Z
    M 542 632 L 550 653 L 554 654 L 563 632 L 559 632 L 553 646 L 550 643 L 547 633 Z
    M 514 632 L 505 654 L 509 654 L 511 650 L 520 650 L 522 654 L 527 654 L 520 640 L 518 633 Z
    M 516 639 L 519 645 L 517 647 L 514 647 L 513 643 Z
    M 475 632 L 472 634 L 471 640 L 475 644 L 481 646 L 482 649 L 480 651 L 476 651 L 473 649 L 470 651 L 473 654 L 477 655 L 483 654 L 486 651 L 486 645 L 484 643 L 476 640 L 475 637 L 477 635 L 480 635 L 484 637 L 485 634 L 483 632 Z
    M 387 632 L 386 633 L 386 654 L 402 654 L 402 651 L 391 651 L 390 650 L 391 645 L 400 645 L 400 641 L 391 641 L 390 637 L 392 635 L 401 635 L 401 632 Z
    M 349 632 L 348 633 L 349 634 L 348 636 L 349 638 L 348 653 L 352 654 L 352 648 L 354 646 L 356 646 L 361 654 L 366 654 L 361 647 L 365 642 L 365 636 L 360 632 Z
    M 352 637 L 354 635 L 358 635 L 361 638 L 361 641 L 358 643 L 353 643 L 352 642 Z
    M 313 632 L 306 639 L 306 648 L 312 654 L 316 655 L 322 654 L 326 651 L 328 647 L 328 639 L 325 634 L 322 632 Z
    M 315 635 L 319 635 L 324 639 L 324 647 L 319 651 L 315 651 L 310 647 L 310 640 Z
    M 262 633 L 262 653 L 263 654 L 266 654 L 266 643 L 267 642 L 273 652 L 275 652 L 281 642 L 282 643 L 281 654 L 285 654 L 285 632 L 281 633 L 274 646 L 272 645 L 266 632 Z
    M 200 632 L 200 654 L 215 654 L 215 651 L 205 651 L 204 650 L 205 645 L 213 645 L 214 644 L 213 641 L 205 641 L 204 636 L 205 635 L 215 635 L 215 632 Z
    M 163 632 L 163 654 L 178 654 L 179 653 L 178 651 L 168 651 L 167 650 L 168 645 L 176 645 L 177 644 L 176 641 L 168 641 L 167 636 L 168 635 L 178 635 L 178 632 Z
    M 130 632 L 127 635 L 126 639 L 130 644 L 135 645 L 138 649 L 135 651 L 131 651 L 128 649 L 126 652 L 129 654 L 135 655 L 140 653 L 142 650 L 142 647 L 138 642 L 133 641 L 130 638 L 132 635 L 135 635 L 139 637 L 141 634 L 138 632 Z
    M 508 555 L 508 591 L 554 591 L 554 582 L 553 581 L 520 581 L 519 580 L 519 566 L 520 565 L 551 565 L 552 564 L 552 556 L 551 555 Z
    M 867 530 L 867 539 L 868 540 L 886 540 L 887 541 L 887 591 L 897 591 L 898 590 L 898 541 L 899 540 L 916 540 L 917 539 L 917 530 Z
    M 788 530 L 788 591 L 799 591 L 799 551 L 800 550 L 831 591 L 842 591 L 842 530 L 831 530 L 831 569 L 830 570 L 825 565 L 799 530 Z
    M 746 530 L 746 591 L 757 591 L 758 590 L 758 533 L 757 530 Z
    M 617 531 L 614 530 L 583 530 L 583 539 L 584 540 L 613 540 L 617 543 L 619 547 L 619 553 L 613 560 L 583 561 L 583 591 L 594 591 L 594 571 L 595 570 L 613 570 L 622 566 L 627 561 L 630 553 L 630 546 L 626 537 Z
    M 508 530 L 508 539 L 509 540 L 553 540 L 554 539 L 554 530 Z
    M 363 530 L 335 591 L 347 591 L 354 577 L 357 568 L 365 553 L 365 551 L 368 547 L 373 556 L 388 591 L 400 591 L 373 530 Z
    M 272 530 L 272 539 L 273 540 L 290 540 L 291 541 L 291 590 L 292 591 L 302 591 L 302 541 L 303 540 L 321 540 L 321 530 Z
    M 194 530 L 194 591 L 205 591 L 205 551 L 206 550 L 237 591 L 247 591 L 248 590 L 248 531 L 247 530 L 237 530 L 237 569 L 236 570 L 221 552 L 205 530 Z
    M 132 530 L 105 591 L 116 591 L 131 560 L 134 551 L 137 547 L 140 551 L 157 591 L 169 591 L 142 530 Z
    M 30 530 L 56 591 L 65 591 L 74 573 L 76 566 L 92 530 L 80 530 L 69 557 L 63 571 L 61 573 L 58 569 L 42 530 Z
    M 676 530 L 666 535 L 660 541 L 656 548 L 654 554 L 654 566 L 656 573 L 664 584 L 674 590 L 682 592 L 689 592 L 698 590 L 707 585 L 712 580 L 716 573 L 718 566 L 717 550 L 712 541 L 706 535 L 701 532 L 691 529 Z
    M 682 539 L 690 539 L 699 543 L 703 547 L 707 556 L 707 565 L 703 574 L 696 580 L 690 582 L 681 582 L 673 578 L 668 572 L 665 565 L 665 556 L 668 549 L 675 542 Z
    M 448 529 L 440 531 L 434 534 L 428 539 L 421 552 L 420 564 L 425 578 L 433 586 L 438 589 L 448 592 L 458 592 L 466 590 L 479 582 L 479 558 L 453 558 L 453 568 L 467 568 L 468 569 L 468 577 L 464 580 L 458 582 L 448 582 L 441 579 L 433 570 L 431 562 L 432 554 L 435 548 L 441 542 L 445 540 L 458 539 L 469 545 L 471 545 L 477 539 L 470 533 L 463 530 Z
    M 562 355 L 507 355 L 436 470 L 436 472 L 493 472 Z
    M 579 240 L 570 253 L 550 287 L 629 287 L 637 289 L 644 293 L 653 303 L 657 313 L 657 327 L 651 340 L 642 349 L 637 352 L 627 355 L 574 355 L 547 401 L 633 401 L 648 398 L 663 392 L 675 384 L 689 370 L 698 355 L 703 341 L 704 330 L 705 329 L 705 309 L 702 294 L 696 280 L 688 268 L 679 259 L 668 251 L 658 246 L 646 242 L 635 241 L 634 240 Z
    M 257 109 L 379 344 L 398 377 L 432 441 L 433 441 L 558 241 L 557 240 L 548 240 L 547 241 L 494 240 L 490 241 L 459 291 L 443 314 L 441 312 L 340 109 Z
    M 673 30 L 572 70 L 591 80 L 595 84 L 538 167 L 501 225 L 566 225 L 571 219 L 575 211 L 639 110 L 641 108 L 643 108 L 655 115 L 667 120 L 672 45 L 673 44 Z
  " fill="#ffffff" fill-rule="evenodd"/>
</svg>
