<svg xmlns="http://www.w3.org/2000/svg" width="1254" height="1254" viewBox="0 0 1254 1254">
<rect width="100%" height="100%" fill="#ffffff"/>
<path d="M 1020 1017 L 1018 1019 L 1020 1021 L 1021 1021 L 1021 1020 L 1022 1019 L 1022 1018 L 1021 1017 Z" fill="#061E42" fill-rule="evenodd"/>
<path d="M 732 1017 L 731 1018 L 731 1020 L 732 1021 L 733 1021 L 735 1019 L 733 1017 Z" fill="#061E42" fill-rule="evenodd"/>
<path d="M 461 1017 L 460 1018 L 460 1020 L 463 1020 L 463 1018 L 462 1017 Z" fill="#061E42" fill-rule="evenodd"/>
<path d="M 997 1002 L 996 1003 L 995 1003 L 995 1004 L 994 1005 L 994 1007 L 995 1008 L 994 1009 L 994 1019 L 996 1021 L 997 1021 L 998 1020 L 999 1021 L 1003 1021 L 1004 1020 L 1005 1020 L 1005 1019 L 1004 1018 L 998 1018 L 997 1017 L 997 1013 L 998 1012 L 1004 1012 L 1004 1010 L 998 1010 L 997 1009 L 997 1006 L 999 1004 L 1005 1004 L 1005 1003 L 1004 1003 L 1003 1002 Z" fill="#061E42" fill-rule="evenodd"/>
<path d="M 969 1002 L 969 1020 L 971 1020 L 971 1014 L 972 1013 L 975 1013 L 976 1014 L 976 1015 L 977 1016 L 977 1018 L 978 1019 L 978 1020 L 981 1020 L 981 1019 L 980 1018 L 980 1016 L 979 1015 L 979 1014 L 978 1013 L 978 1012 L 980 1010 L 980 1009 L 981 1008 L 980 1007 L 980 1004 L 979 1004 L 978 1003 L 972 1003 L 971 1002 Z M 971 1005 L 972 1004 L 975 1004 L 976 1005 L 977 1005 L 978 1006 L 978 1009 L 977 1010 L 976 1010 L 975 1011 L 973 1011 L 971 1009 Z" fill="#061E42" fill-rule="evenodd"/>
<path d="M 944 1002 L 943 1003 L 942 1003 L 940 1005 L 940 1006 L 938 1008 L 938 1015 L 939 1016 L 939 1017 L 942 1020 L 943 1020 L 944 1021 L 949 1021 L 950 1020 L 951 1020 L 953 1018 L 953 1017 L 955 1015 L 955 1008 L 954 1007 L 954 1006 L 951 1003 L 950 1003 L 949 1002 Z M 945 1004 L 948 1004 L 952 1008 L 952 1014 L 951 1015 L 951 1016 L 949 1018 L 948 1018 L 947 1019 L 945 1019 L 942 1016 L 942 1015 L 941 1014 L 941 1008 Z" fill="#061E42" fill-rule="evenodd"/>
<path d="M 908 1002 L 907 1003 L 907 1013 L 906 1014 L 906 1017 L 907 1018 L 907 1020 L 908 1020 L 908 1017 L 909 1016 L 909 1010 L 910 1009 L 911 1010 L 911 1011 L 912 1012 L 912 1015 L 913 1016 L 913 1017 L 914 1018 L 914 1020 L 916 1020 L 917 1019 L 917 1016 L 918 1015 L 918 1014 L 919 1013 L 919 1011 L 920 1010 L 920 1009 L 921 1008 L 922 1009 L 922 1019 L 923 1020 L 924 1020 L 925 1019 L 925 1015 L 924 1014 L 925 1013 L 925 1008 L 924 1007 L 924 1003 L 920 1003 L 920 1004 L 919 1005 L 919 1007 L 918 1008 L 918 1011 L 917 1012 L 917 1013 L 916 1014 L 915 1014 L 914 1013 L 914 1012 L 913 1011 L 913 1009 L 912 1008 L 912 1006 L 911 1005 L 911 1003 L 910 1003 L 909 1002 Z" fill="#061E42" fill-rule="evenodd"/>
<path d="M 869 1002 L 868 1003 L 867 1003 L 867 1020 L 868 1021 L 875 1021 L 876 1020 L 877 1020 L 877 1019 L 876 1018 L 870 1018 L 869 1017 L 869 1013 L 870 1012 L 876 1012 L 877 1011 L 876 1010 L 870 1010 L 869 1009 L 869 1006 L 871 1004 L 877 1004 L 877 1003 L 876 1002 Z" fill="#061E42" fill-rule="evenodd"/>
<path d="M 840 1002 L 839 1003 L 839 1006 L 840 1007 L 840 1009 L 841 1010 L 841 1012 L 842 1013 L 842 1014 L 843 1015 L 843 1018 L 844 1019 L 844 1020 L 848 1020 L 848 1019 L 849 1018 L 849 1016 L 850 1015 L 850 1013 L 851 1012 L 851 1010 L 852 1009 L 852 1007 L 853 1006 L 853 1003 L 851 1003 L 851 1004 L 850 1005 L 850 1007 L 849 1008 L 849 1010 L 848 1011 L 848 1013 L 847 1014 L 847 1015 L 846 1016 L 845 1015 L 845 1013 L 844 1012 L 844 1011 L 843 1010 L 843 1007 L 842 1006 L 842 1004 L 841 1003 L 841 1002 Z" fill="#061E42" fill-rule="evenodd"/>
<path d="M 814 1003 L 814 1020 L 816 1020 L 817 1019 L 816 1018 L 816 1017 L 817 1016 L 817 1014 L 818 1013 L 820 1013 L 822 1015 L 822 1017 L 823 1018 L 823 1019 L 825 1021 L 826 1021 L 827 1020 L 826 1019 L 826 1018 L 825 1017 L 825 1015 L 823 1013 L 823 1012 L 826 1009 L 826 1006 L 825 1005 L 825 1004 L 824 1003 L 823 1003 L 822 1002 L 818 1002 L 817 1003 Z M 817 1005 L 818 1004 L 821 1004 L 823 1006 L 823 1009 L 822 1010 L 821 1010 L 820 1011 L 818 1011 L 817 1010 Z" fill="#061E42" fill-rule="evenodd"/>
<path d="M 790 1002 L 790 1020 L 791 1021 L 792 1020 L 800 1020 L 800 1019 L 799 1018 L 793 1018 L 792 1017 L 792 1013 L 793 1012 L 799 1012 L 800 1011 L 799 1010 L 793 1010 L 792 1009 L 792 1005 L 793 1004 L 800 1004 L 800 1003 L 799 1002 Z" fill="#061E42" fill-rule="evenodd"/>
<path d="M 768 1002 L 765 1005 L 765 1006 L 764 1007 L 765 1008 L 765 1010 L 766 1011 L 767 1011 L 768 1012 L 769 1012 L 770 1013 L 771 1013 L 773 1015 L 773 1017 L 772 1018 L 771 1018 L 770 1019 L 768 1019 L 767 1018 L 765 1018 L 765 1020 L 766 1020 L 767 1021 L 772 1021 L 774 1019 L 775 1019 L 775 1018 L 776 1017 L 776 1014 L 775 1013 L 775 1012 L 774 1011 L 773 1011 L 772 1010 L 770 1010 L 767 1007 L 767 1006 L 769 1004 L 772 1004 L 773 1005 L 774 1005 L 775 1004 L 775 1003 L 774 1003 L 773 1002 Z" fill="#061E42" fill-rule="evenodd"/>
<path d="M 708 1002 L 706 1004 L 706 1006 L 707 1007 L 707 1008 L 706 1009 L 706 1011 L 707 1012 L 706 1013 L 706 1015 L 707 1016 L 707 1017 L 706 1018 L 706 1019 L 708 1021 L 709 1021 L 710 1020 L 711 1020 L 712 1021 L 716 1021 L 717 1020 L 717 1019 L 716 1018 L 710 1018 L 709 1017 L 709 1013 L 710 1012 L 716 1012 L 716 1010 L 710 1010 L 709 1009 L 709 1006 L 711 1004 L 717 1004 L 717 1003 L 716 1002 Z" fill="#061E42" fill-rule="evenodd"/>
<path d="M 681 1002 L 680 1003 L 680 1020 L 683 1020 L 683 1014 L 684 1013 L 687 1013 L 688 1014 L 688 1015 L 689 1016 L 689 1018 L 690 1019 L 690 1020 L 692 1020 L 692 1017 L 691 1016 L 691 1014 L 689 1012 L 690 1011 L 691 1011 L 691 1010 L 692 1009 L 692 1005 L 690 1003 L 689 1003 L 688 1002 L 687 1002 L 686 1003 L 683 1003 L 682 1002 Z M 683 1005 L 684 1004 L 687 1004 L 688 1005 L 689 1005 L 690 1006 L 690 1008 L 687 1011 L 684 1011 L 683 1010 Z" fill="#061E42" fill-rule="evenodd"/>
<path d="M 655 1002 L 650 1007 L 650 1016 L 654 1020 L 655 1020 L 656 1021 L 660 1021 L 661 1020 L 662 1020 L 666 1016 L 666 1015 L 667 1014 L 667 1009 L 666 1008 L 666 1006 L 663 1003 L 662 1003 L 661 1002 Z M 657 1004 L 660 1004 L 663 1007 L 663 1008 L 664 1009 L 664 1013 L 663 1014 L 663 1015 L 662 1016 L 662 1017 L 661 1018 L 660 1018 L 659 1019 L 658 1019 L 657 1018 L 656 1018 L 653 1015 L 653 1013 L 652 1012 L 652 1011 L 653 1010 L 653 1007 L 655 1005 L 656 1005 Z" fill="#061E42" fill-rule="evenodd"/>
<path d="M 619 1002 L 618 1003 L 618 1020 L 620 1020 L 620 1009 L 621 1008 L 622 1009 L 622 1010 L 623 1011 L 623 1013 L 624 1014 L 624 1016 L 625 1017 L 625 1018 L 626 1019 L 626 1020 L 628 1020 L 628 1018 L 629 1017 L 629 1016 L 630 1015 L 630 1013 L 631 1012 L 631 1010 L 633 1008 L 634 1009 L 634 1010 L 633 1011 L 633 1012 L 634 1013 L 634 1020 L 636 1020 L 636 1003 L 632 1003 L 631 1004 L 631 1006 L 630 1007 L 630 1008 L 629 1009 L 629 1011 L 628 1012 L 628 1014 L 627 1015 L 626 1014 L 626 1013 L 625 1012 L 625 1010 L 624 1009 L 624 1008 L 623 1007 L 623 1004 L 622 1003 L 622 1002 Z" fill="#061E42" fill-rule="evenodd"/>
<path d="M 579 1002 L 578 1003 L 578 1020 L 581 1020 L 582 1021 L 587 1021 L 588 1020 L 589 1020 L 589 1019 L 588 1018 L 581 1018 L 580 1017 L 580 1013 L 581 1012 L 587 1012 L 588 1011 L 588 1010 L 582 1010 L 580 1008 L 580 1006 L 582 1004 L 588 1004 L 588 1003 L 587 1003 L 586 1002 Z" fill="#061E42" fill-rule="evenodd"/>
<path d="M 564 1002 L 563 1002 L 562 1003 L 562 1004 L 561 1005 L 561 1006 L 560 1007 L 560 1010 L 559 1011 L 559 1012 L 558 1013 L 558 1015 L 557 1016 L 556 1015 L 556 1014 L 555 1013 L 555 1011 L 554 1010 L 554 1009 L 553 1008 L 553 1005 L 552 1004 L 552 1003 L 549 1003 L 550 1004 L 550 1007 L 551 1008 L 551 1010 L 552 1011 L 552 1012 L 553 1013 L 553 1015 L 554 1016 L 554 1019 L 555 1020 L 558 1020 L 559 1019 L 559 1018 L 560 1017 L 560 1015 L 561 1014 L 561 1012 L 562 1011 L 562 1009 L 563 1008 L 563 1006 L 564 1005 Z" fill="#061E42" fill-rule="evenodd"/>
<path d="M 528 1002 L 527 1003 L 527 1005 L 526 1006 L 526 1008 L 525 1009 L 525 1012 L 524 1013 L 524 1015 L 522 1017 L 522 1020 L 524 1020 L 525 1019 L 525 1017 L 527 1015 L 528 1016 L 531 1016 L 532 1015 L 534 1017 L 534 1020 L 535 1020 L 536 1021 L 537 1020 L 537 1017 L 536 1016 L 536 1015 L 535 1014 L 535 1012 L 534 1011 L 534 1009 L 533 1008 L 533 1007 L 532 1006 L 532 1003 L 531 1003 L 530 1002 Z M 529 1007 L 530 1007 L 531 1008 L 531 1009 L 532 1010 L 532 1012 L 531 1013 L 528 1013 L 527 1012 L 527 1010 L 528 1009 L 528 1008 Z" fill="#061E42" fill-rule="evenodd"/>
<path d="M 501 1002 L 500 1003 L 499 1003 L 498 1004 L 498 1010 L 499 1011 L 500 1011 L 501 1012 L 502 1012 L 503 1013 L 505 1013 L 506 1014 L 506 1017 L 505 1018 L 504 1018 L 503 1019 L 501 1019 L 500 1018 L 498 1018 L 498 1020 L 499 1020 L 500 1021 L 505 1021 L 506 1020 L 507 1020 L 508 1019 L 508 1018 L 509 1017 L 509 1013 L 508 1012 L 507 1012 L 505 1010 L 503 1010 L 500 1007 L 500 1006 L 502 1004 L 506 1004 L 507 1005 L 508 1004 L 508 1003 L 507 1003 L 506 1002 Z" fill="#061E42" fill-rule="evenodd"/>
<path d="M 435 1002 L 435 1020 L 439 1020 L 440 1021 L 443 1021 L 444 1020 L 446 1020 L 446 1019 L 442 1019 L 441 1018 L 438 1018 L 437 1017 L 437 1013 L 438 1012 L 444 1012 L 445 1011 L 444 1010 L 438 1010 L 437 1009 L 437 1006 L 439 1004 L 445 1004 L 445 1003 L 444 1002 Z" fill="#061E42" fill-rule="evenodd"/>
<path d="M 409 1002 L 408 1003 L 408 1020 L 410 1020 L 411 1019 L 411 1014 L 413 1012 L 416 1015 L 416 1016 L 417 1017 L 417 1019 L 419 1021 L 420 1020 L 420 1017 L 419 1016 L 419 1015 L 418 1014 L 418 1013 L 417 1012 L 418 1011 L 419 1011 L 419 1010 L 420 1009 L 420 1005 L 418 1003 L 417 1003 L 416 1002 L 414 1002 L 413 1003 L 412 1003 L 411 1002 Z M 411 1005 L 412 1004 L 415 1004 L 417 1006 L 417 1009 L 415 1011 L 412 1011 L 411 1010 Z" fill="#061E42" fill-rule="evenodd"/>
<path d="M 383 1002 L 382 1003 L 381 1003 L 378 1006 L 378 1007 L 377 1008 L 377 1015 L 378 1016 L 378 1017 L 381 1020 L 382 1020 L 383 1021 L 388 1021 L 390 1019 L 391 1019 L 393 1017 L 393 1015 L 394 1014 L 394 1008 L 393 1007 L 393 1006 L 392 1005 L 392 1004 L 391 1004 L 390 1003 L 389 1003 L 388 1002 Z M 384 1004 L 387 1004 L 388 1005 L 389 1005 L 390 1006 L 390 1007 L 391 1008 L 391 1010 L 392 1011 L 392 1013 L 390 1015 L 390 1016 L 387 1019 L 385 1019 L 384 1018 L 383 1018 L 380 1015 L 380 1008 L 381 1007 L 381 1006 L 382 1005 L 383 1005 Z" fill="#061E42" fill-rule="evenodd"/>
<path d="M 345 1003 L 345 1020 L 346 1020 L 347 1019 L 347 1009 L 348 1008 L 349 1009 L 349 1011 L 350 1012 L 350 1014 L 351 1015 L 351 1017 L 352 1018 L 352 1019 L 353 1020 L 354 1020 L 355 1019 L 355 1018 L 356 1017 L 356 1014 L 357 1013 L 357 1012 L 358 1011 L 358 1010 L 359 1009 L 360 1010 L 360 1018 L 361 1019 L 361 1020 L 363 1020 L 363 1003 L 362 1002 L 359 1002 L 358 1003 L 358 1006 L 357 1007 L 357 1008 L 356 1009 L 356 1011 L 355 1012 L 355 1014 L 354 1015 L 353 1014 L 353 1012 L 351 1010 L 351 1008 L 350 1007 L 350 1005 L 349 1004 L 349 1003 L 348 1003 L 347 1002 L 346 1003 Z" fill="#061E42" fill-rule="evenodd"/>
<path d="M 304 1002 L 303 1003 L 302 1003 L 302 1020 L 303 1021 L 306 1021 L 307 1020 L 308 1021 L 311 1021 L 312 1020 L 313 1020 L 313 1019 L 312 1019 L 311 1018 L 306 1018 L 305 1017 L 305 1013 L 306 1012 L 311 1012 L 312 1011 L 311 1010 L 306 1010 L 305 1009 L 305 1005 L 306 1004 L 312 1004 L 312 1003 L 311 1002 L 310 1003 L 307 1003 L 306 1002 Z" fill="#061E42" fill-rule="evenodd"/>
<path d="M 278 1002 L 277 1003 L 277 1020 L 278 1020 L 279 1021 L 283 1021 L 284 1020 L 287 1020 L 288 1019 L 286 1019 L 285 1018 L 281 1018 L 279 1016 L 279 1013 L 280 1012 L 286 1012 L 287 1011 L 286 1010 L 281 1010 L 280 1009 L 280 1008 L 279 1007 L 279 1006 L 281 1004 L 287 1004 L 287 1003 L 285 1003 L 284 1002 L 283 1003 L 280 1003 L 279 1002 Z" fill="#061E42" fill-rule="evenodd"/>
<path d="M 255 1002 L 252 1005 L 252 1007 L 251 1008 L 252 1009 L 252 1010 L 253 1011 L 254 1011 L 255 1012 L 256 1012 L 257 1013 L 259 1013 L 260 1014 L 260 1017 L 259 1018 L 258 1018 L 257 1019 L 255 1019 L 254 1018 L 252 1018 L 251 1019 L 252 1020 L 253 1020 L 254 1021 L 259 1021 L 261 1019 L 262 1019 L 262 1018 L 263 1017 L 263 1014 L 262 1013 L 262 1012 L 261 1012 L 259 1010 L 257 1010 L 254 1007 L 254 1006 L 256 1004 L 259 1004 L 260 1005 L 261 1005 L 262 1004 L 262 1003 L 261 1003 L 260 1002 Z" fill="#061E42" fill-rule="evenodd"/>
<path d="M 927 899 L 927 900 L 928 901 L 928 903 L 931 906 L 931 907 L 932 908 L 932 909 L 934 911 L 934 912 L 936 914 L 936 916 L 937 917 L 936 918 L 937 919 L 937 923 L 936 924 L 937 925 L 936 926 L 937 927 L 941 927 L 941 916 L 942 915 L 943 915 L 943 913 L 946 910 L 946 909 L 947 908 L 947 907 L 949 905 L 949 904 L 950 903 L 950 902 L 951 901 L 951 899 L 950 899 L 949 900 L 948 900 L 947 899 L 946 900 L 946 901 L 944 903 L 944 904 L 942 906 L 942 907 L 941 908 L 941 909 L 940 910 L 938 910 L 937 909 L 937 908 L 936 907 L 936 906 L 935 905 L 935 904 L 933 902 L 933 900 L 932 900 L 931 899 L 930 899 L 929 900 L 928 900 Z" fill="#061E42" fill-rule="evenodd"/>
<path d="M 885 900 L 885 903 L 886 904 L 887 904 L 888 903 L 889 904 L 893 904 L 894 905 L 894 927 L 899 927 L 899 905 L 900 904 L 904 904 L 905 903 L 907 903 L 907 899 L 906 899 L 905 900 L 904 899 L 900 899 L 899 900 L 894 900 L 893 899 L 890 899 L 889 900 Z" fill="#061E42" fill-rule="evenodd"/>
<path d="M 845 899 L 844 900 L 844 904 L 843 905 L 844 906 L 844 922 L 843 923 L 843 926 L 844 927 L 864 927 L 864 923 L 850 923 L 848 921 L 848 918 L 849 917 L 849 916 L 850 915 L 862 915 L 863 914 L 863 913 L 862 912 L 862 911 L 850 911 L 849 910 L 849 909 L 848 908 L 848 907 L 849 906 L 849 905 L 850 904 L 857 904 L 858 903 L 864 903 L 864 899 L 859 899 L 858 900 L 857 900 L 856 899 L 855 900 L 853 900 L 852 899 Z" fill="#061E42" fill-rule="evenodd"/>
<path d="M 820 899 L 805 899 L 804 900 L 803 899 L 802 900 L 801 899 L 800 900 L 800 907 L 801 908 L 801 910 L 800 911 L 800 923 L 801 924 L 801 925 L 800 926 L 801 927 L 805 927 L 805 922 L 806 921 L 806 920 L 805 919 L 805 918 L 807 916 L 819 916 L 820 915 L 820 912 L 813 912 L 812 911 L 811 911 L 810 912 L 808 912 L 805 909 L 805 906 L 807 904 L 818 904 L 819 903 L 821 903 L 821 900 Z" fill="#061E42" fill-rule="evenodd"/>
<path d="M 763 899 L 761 901 L 761 902 L 760 903 L 760 905 L 759 906 L 759 907 L 758 908 L 758 910 L 757 911 L 757 912 L 756 913 L 756 914 L 755 915 L 755 917 L 754 918 L 754 919 L 753 920 L 753 921 L 752 922 L 752 924 L 750 926 L 750 927 L 755 927 L 756 926 L 756 924 L 759 921 L 771 921 L 772 922 L 772 924 L 773 925 L 773 926 L 774 927 L 779 927 L 779 926 L 778 925 L 778 924 L 777 923 L 777 921 L 776 920 L 776 919 L 775 918 L 775 916 L 773 914 L 773 911 L 772 910 L 772 909 L 771 908 L 771 906 L 770 905 L 770 904 L 769 903 L 769 902 L 768 901 L 768 900 L 767 899 Z M 764 907 L 765 907 L 766 908 L 766 909 L 767 910 L 767 911 L 768 912 L 768 914 L 769 915 L 768 916 L 766 916 L 765 917 L 763 917 L 761 915 L 761 913 L 762 912 L 762 911 L 763 910 L 763 908 Z" fill="#061E42" fill-rule="evenodd"/>
<path d="M 713 900 L 711 902 L 711 903 L 710 904 L 710 910 L 711 911 L 711 912 L 712 912 L 713 913 L 714 913 L 716 915 L 721 915 L 723 917 L 724 917 L 725 918 L 725 921 L 722 924 L 719 924 L 718 923 L 717 923 L 716 922 L 715 922 L 714 921 L 713 921 L 712 920 L 711 920 L 711 921 L 709 923 L 709 924 L 710 925 L 711 925 L 712 926 L 713 926 L 714 927 L 718 927 L 719 928 L 721 928 L 722 927 L 726 927 L 729 924 L 729 923 L 730 922 L 730 916 L 726 912 L 724 912 L 723 911 L 721 911 L 720 910 L 717 910 L 715 908 L 715 906 L 718 903 L 721 903 L 722 904 L 724 904 L 725 905 L 726 905 L 727 906 L 728 905 L 728 904 L 729 903 L 729 902 L 727 900 L 724 900 L 723 899 L 717 899 L 716 900 Z" fill="#061E42" fill-rule="evenodd"/>
<path d="M 641 900 L 637 904 L 637 905 L 635 907 L 635 908 L 634 909 L 634 918 L 636 920 L 636 921 L 637 922 L 637 923 L 638 924 L 639 924 L 641 926 L 642 926 L 643 927 L 646 927 L 647 928 L 650 928 L 651 927 L 655 927 L 656 926 L 657 926 L 660 923 L 657 920 L 656 920 L 654 922 L 652 922 L 651 923 L 646 923 L 645 922 L 644 922 L 640 918 L 640 917 L 639 916 L 639 911 L 640 910 L 640 909 L 645 904 L 652 904 L 653 905 L 654 905 L 656 907 L 659 904 L 659 903 L 656 900 L 655 900 L 654 899 L 644 899 L 643 900 Z" fill="#061E42" fill-rule="evenodd"/>
<path d="M 607 899 L 606 900 L 606 927 L 611 927 L 611 900 L 608 900 Z" fill="#061E42" fill-rule="evenodd"/>
<path d="M 564 899 L 564 905 L 563 906 L 563 908 L 564 909 L 564 927 L 583 927 L 583 923 L 570 923 L 569 922 L 569 908 L 568 907 L 568 906 L 569 905 L 569 901 L 568 900 L 568 899 Z" fill="#061E42" fill-rule="evenodd"/>
<path d="M 518 899 L 518 901 L 517 902 L 517 903 L 518 904 L 518 905 L 517 906 L 518 907 L 518 913 L 517 914 L 517 916 L 518 917 L 517 918 L 517 921 L 518 922 L 517 923 L 518 924 L 518 927 L 535 927 L 536 926 L 537 926 L 538 925 L 539 925 L 539 924 L 540 923 L 540 922 L 541 921 L 541 918 L 540 917 L 540 916 L 539 915 L 539 914 L 538 914 L 537 913 L 537 912 L 539 910 L 539 908 L 540 907 L 540 906 L 539 905 L 539 903 L 537 901 L 536 901 L 535 900 L 531 900 L 530 899 L 529 900 L 528 899 L 526 899 L 525 900 L 524 900 L 523 899 Z M 522 919 L 523 918 L 523 916 L 524 915 L 533 915 L 536 918 L 536 921 L 535 922 L 533 922 L 532 923 L 524 923 L 523 922 L 523 921 L 522 920 Z M 522 907 L 523 906 L 523 905 L 525 903 L 526 904 L 533 904 L 534 905 L 534 906 L 535 907 L 534 908 L 534 909 L 532 911 L 524 911 L 522 909 Z" fill="#061E42" fill-rule="evenodd"/>
<path d="M 471 899 L 470 900 L 470 921 L 471 922 L 471 923 L 475 927 L 479 927 L 480 928 L 482 928 L 483 927 L 488 927 L 492 923 L 492 921 L 493 920 L 493 899 L 492 900 L 489 900 L 489 903 L 488 904 L 488 916 L 489 917 L 488 918 L 488 920 L 485 923 L 479 923 L 478 922 L 477 922 L 475 920 L 475 914 L 474 913 L 474 912 L 475 911 L 475 910 L 474 909 L 474 905 L 475 904 L 475 902 L 474 901 L 474 899 L 473 900 L 472 899 Z" fill="#061E42" fill-rule="evenodd"/>
<path d="M 443 900 L 438 900 L 437 899 L 427 899 L 426 900 L 426 927 L 431 927 L 431 919 L 432 918 L 440 918 L 441 917 L 443 917 L 445 915 L 446 915 L 446 914 L 447 913 L 447 904 Z M 431 905 L 432 904 L 440 904 L 443 907 L 443 910 L 440 913 L 439 913 L 438 914 L 432 914 L 431 913 Z" fill="#061E42" fill-rule="evenodd"/>
<path d="M 387 877 L 385 879 L 382 880 L 382 912 L 383 913 L 382 914 L 382 922 L 381 923 L 381 924 L 380 925 L 380 926 L 379 927 L 379 928 L 378 929 L 377 932 L 366 943 L 365 943 L 362 946 L 359 947 L 354 951 L 353 951 L 348 954 L 346 954 L 341 950 L 339 950 L 338 949 L 337 949 L 335 947 L 334 947 L 331 944 L 330 944 L 318 932 L 318 931 L 316 929 L 316 928 L 315 927 L 315 924 L 313 922 L 313 911 L 311 909 L 308 909 L 308 923 L 309 924 L 309 926 L 310 927 L 311 930 L 313 932 L 314 935 L 318 939 L 318 940 L 321 943 L 322 943 L 326 947 L 327 947 L 330 950 L 333 951 L 338 955 L 340 955 L 342 957 L 343 957 L 346 959 L 350 959 L 351 958 L 352 958 L 354 956 L 355 956 L 356 955 L 359 954 L 362 951 L 363 951 L 365 949 L 367 949 L 373 943 L 374 943 L 376 941 L 376 940 L 378 938 L 379 938 L 379 937 L 383 932 L 383 931 L 386 926 L 386 924 L 387 923 Z" fill="#061E42" fill-rule="evenodd"/>
<path d="M 345 877 L 344 878 L 342 878 L 341 879 L 340 879 L 339 880 L 336 880 L 335 881 L 332 881 L 331 882 L 327 882 L 326 883 L 324 883 L 323 884 L 320 884 L 319 885 L 319 887 L 320 888 L 320 901 L 319 902 L 319 906 L 318 907 L 318 920 L 319 921 L 319 922 L 320 923 L 320 926 L 323 929 L 323 930 L 333 940 L 334 940 L 337 943 L 338 943 L 339 944 L 340 944 L 341 945 L 342 945 L 344 947 L 345 947 L 346 948 L 348 948 L 349 947 L 351 947 L 353 945 L 354 945 L 356 943 L 357 943 L 358 942 L 359 942 L 362 939 L 363 939 L 365 937 L 366 937 L 368 935 L 368 934 L 373 929 L 373 928 L 375 926 L 375 924 L 376 923 L 376 921 L 377 920 L 377 916 L 378 915 L 378 912 L 377 911 L 377 884 L 376 883 L 375 884 L 374 884 L 373 883 L 367 883 L 366 882 L 362 882 L 361 881 L 360 881 L 359 880 L 355 880 L 354 879 L 352 879 L 351 878 L 350 878 L 349 877 Z M 347 892 L 348 892 L 349 893 L 349 895 L 350 896 L 350 897 L 351 898 L 351 899 L 352 900 L 352 903 L 353 904 L 354 904 L 355 905 L 366 905 L 367 906 L 366 907 L 365 907 L 362 910 L 361 910 L 357 914 L 357 919 L 358 920 L 358 922 L 359 923 L 359 926 L 360 927 L 359 928 L 357 928 L 353 924 L 352 924 L 351 923 L 350 923 L 349 922 L 346 922 L 345 923 L 344 923 L 341 926 L 340 926 L 338 928 L 337 928 L 336 927 L 336 926 L 337 925 L 337 921 L 338 920 L 338 917 L 339 916 L 339 914 L 338 913 L 337 913 L 334 910 L 333 910 L 329 906 L 330 905 L 338 905 L 339 904 L 342 904 L 343 903 L 343 901 L 344 900 L 344 899 L 345 898 L 345 897 L 346 896 L 346 893 Z" fill="#061E42" fill-rule="evenodd"/>
<path d="M 671 791 L 671 793 L 670 794 L 670 825 L 671 826 L 671 828 L 718 828 L 718 818 L 683 818 L 682 817 L 682 802 L 683 801 L 713 801 L 714 800 L 715 800 L 715 791 Z" fill="#061E42" fill-rule="evenodd"/>
<path d="M 1045 764 L 1044 765 L 1043 765 L 1043 774 L 1044 774 L 1045 775 L 1062 775 L 1064 777 L 1064 778 L 1063 779 L 1063 781 L 1064 782 L 1064 806 L 1063 807 L 1063 811 L 1064 812 L 1064 828 L 1074 828 L 1074 776 L 1075 775 L 1093 775 L 1094 774 L 1094 765 L 1093 765 L 1092 764 Z" fill="#061E42" fill-rule="evenodd"/>
<path d="M 961 765 L 961 827 L 962 828 L 972 828 L 972 786 L 973 785 L 974 785 L 976 787 L 976 788 L 980 792 L 980 793 L 983 796 L 983 797 L 986 800 L 986 801 L 989 804 L 989 805 L 993 809 L 993 810 L 995 812 L 995 813 L 998 816 L 998 817 L 1001 820 L 1001 821 L 1006 826 L 1006 827 L 1007 828 L 1017 828 L 1017 765 L 1016 765 L 1015 764 L 1009 764 L 1008 765 L 1007 765 L 1007 766 L 1006 767 L 1006 784 L 1007 785 L 1006 786 L 1006 805 L 1005 806 L 1004 806 L 1003 805 L 1003 804 L 1000 801 L 1000 800 L 997 797 L 997 796 L 996 796 L 995 795 L 995 794 L 992 791 L 991 788 L 983 779 L 983 778 L 981 776 L 981 775 L 978 772 L 978 771 L 973 766 L 973 765 L 972 765 L 971 764 L 969 764 L 968 765 L 967 765 L 966 764 L 963 764 L 962 765 Z" fill="#061E42" fill-rule="evenodd"/>
<path d="M 920 764 L 919 765 L 919 817 L 918 818 L 918 819 L 919 820 L 919 828 L 929 828 L 930 827 L 930 765 L 926 765 L 925 764 Z" fill="#061E42" fill-rule="evenodd"/>
<path d="M 848 764 L 847 765 L 846 765 L 845 766 L 842 766 L 841 767 L 840 767 L 839 768 L 838 768 L 836 770 L 835 770 L 829 776 L 829 777 L 828 778 L 828 779 L 826 781 L 826 782 L 825 783 L 825 785 L 824 786 L 824 789 L 823 790 L 823 803 L 824 804 L 824 806 L 825 807 L 825 808 L 826 809 L 826 811 L 827 812 L 827 813 L 828 814 L 828 815 L 836 823 L 837 823 L 839 825 L 841 825 L 843 827 L 846 827 L 847 828 L 850 828 L 851 829 L 861 829 L 862 828 L 865 828 L 866 827 L 868 827 L 869 826 L 870 826 L 871 825 L 872 825 L 873 824 L 874 824 L 876 822 L 877 822 L 884 815 L 884 814 L 885 813 L 885 812 L 886 811 L 886 810 L 887 809 L 887 807 L 888 806 L 888 804 L 889 803 L 889 789 L 888 788 L 888 785 L 887 784 L 887 783 L 886 782 L 886 781 L 885 780 L 885 779 L 883 777 L 883 776 L 876 769 L 875 769 L 874 768 L 873 768 L 872 767 L 870 767 L 868 765 L 866 765 L 865 764 Z M 853 773 L 858 773 L 859 774 L 861 774 L 862 775 L 865 775 L 867 777 L 868 777 L 869 778 L 870 778 L 871 779 L 871 780 L 876 785 L 876 787 L 877 788 L 877 790 L 878 791 L 878 801 L 877 802 L 877 804 L 876 805 L 876 807 L 873 810 L 873 811 L 871 813 L 870 813 L 870 814 L 869 815 L 868 815 L 866 817 L 864 817 L 863 818 L 859 818 L 858 819 L 853 819 L 852 818 L 848 818 L 847 817 L 846 817 L 842 813 L 841 813 L 840 812 L 840 811 L 837 808 L 837 807 L 836 806 L 836 805 L 835 804 L 835 801 L 834 800 L 834 793 L 835 792 L 835 788 L 836 787 L 836 786 L 837 785 L 837 784 L 839 782 L 839 781 L 840 780 L 841 780 L 844 777 L 845 777 L 847 775 L 850 775 L 851 774 L 852 774 Z" fill="#061E42" fill-rule="evenodd"/>
<path d="M 788 767 L 786 767 L 783 765 L 779 765 L 778 764 L 771 764 L 770 765 L 768 765 L 767 764 L 753 764 L 752 765 L 749 765 L 749 774 L 751 774 L 752 775 L 781 775 L 785 779 L 785 780 L 786 781 L 786 790 L 780 796 L 751 796 L 750 797 L 749 797 L 749 828 L 759 828 L 759 827 L 760 826 L 759 825 L 760 824 L 760 807 L 761 806 L 779 806 L 780 805 L 783 805 L 784 804 L 786 804 L 787 803 L 788 803 L 791 800 L 792 800 L 793 799 L 793 798 L 795 796 L 795 795 L 797 792 L 797 786 L 798 785 L 797 784 L 797 778 L 796 777 L 796 776 L 795 775 L 795 774 Z" fill="#061E42" fill-rule="evenodd"/>
<path d="M 670 768 L 670 772 L 671 773 L 671 774 L 672 774 L 673 775 L 682 775 L 683 774 L 684 775 L 717 775 L 718 774 L 718 765 L 717 765 L 716 764 L 672 764 L 671 765 L 671 767 Z" fill="#061E42" fill-rule="evenodd"/>
<path d="M 599 766 L 598 767 L 595 768 L 592 771 L 591 771 L 590 772 L 590 773 L 585 778 L 585 779 L 582 784 L 582 787 L 581 788 L 581 790 L 580 791 L 580 802 L 581 803 L 581 805 L 582 806 L 582 809 L 583 810 L 584 813 L 586 815 L 586 816 L 592 822 L 593 822 L 596 825 L 598 825 L 601 827 L 604 827 L 605 828 L 611 828 L 612 829 L 619 829 L 620 828 L 624 828 L 627 826 L 629 826 L 630 825 L 635 823 L 638 820 L 639 820 L 641 818 L 641 796 L 640 795 L 641 794 L 614 794 L 614 803 L 627 803 L 628 804 L 629 804 L 630 805 L 629 806 L 630 807 L 630 813 L 627 816 L 625 816 L 622 818 L 618 818 L 617 819 L 611 819 L 610 818 L 606 818 L 605 817 L 602 816 L 600 814 L 599 814 L 596 811 L 596 810 L 594 808 L 594 807 L 593 806 L 593 804 L 592 803 L 592 801 L 591 800 L 591 793 L 592 792 L 592 790 L 593 789 L 593 787 L 594 786 L 595 783 L 601 777 L 602 777 L 604 775 L 607 775 L 608 774 L 611 774 L 612 773 L 617 773 L 618 774 L 621 774 L 622 775 L 625 776 L 630 780 L 632 780 L 639 773 L 638 772 L 637 772 L 634 769 L 633 769 L 628 766 L 626 766 L 623 764 L 605 764 L 602 766 Z" fill="#061E42" fill-rule="evenodd"/>
<path d="M 519 765 L 519 766 L 518 767 L 518 769 L 516 771 L 516 773 L 515 774 L 515 775 L 514 776 L 514 777 L 512 780 L 512 782 L 510 784 L 510 786 L 508 788 L 508 790 L 507 791 L 507 792 L 506 793 L 506 794 L 504 797 L 504 799 L 502 801 L 502 803 L 500 806 L 500 808 L 499 809 L 499 810 L 497 812 L 497 814 L 496 815 L 496 817 L 494 819 L 494 820 L 493 821 L 493 823 L 491 825 L 491 827 L 490 828 L 502 828 L 504 826 L 504 824 L 505 823 L 505 822 L 506 821 L 506 820 L 508 817 L 508 815 L 509 814 L 509 813 L 510 812 L 510 811 L 511 810 L 511 809 L 513 806 L 513 804 L 514 803 L 514 801 L 515 800 L 515 799 L 516 798 L 516 797 L 518 795 L 518 794 L 519 793 L 519 790 L 520 789 L 520 788 L 521 787 L 521 786 L 523 784 L 523 783 L 524 782 L 525 782 L 526 783 L 526 784 L 527 785 L 527 786 L 528 787 L 528 788 L 529 789 L 529 790 L 530 791 L 530 792 L 532 795 L 532 797 L 534 799 L 534 802 L 536 804 L 536 806 L 538 809 L 538 811 L 540 813 L 540 815 L 541 816 L 541 818 L 542 819 L 542 820 L 543 821 L 543 822 L 545 824 L 545 826 L 546 827 L 546 828 L 558 828 L 558 827 L 557 826 L 557 824 L 555 821 L 555 819 L 553 817 L 553 815 L 551 812 L 551 810 L 550 809 L 550 808 L 548 806 L 548 805 L 546 802 L 546 800 L 545 799 L 545 798 L 544 797 L 544 796 L 542 793 L 542 791 L 541 790 L 541 789 L 539 786 L 539 784 L 537 781 L 537 779 L 535 777 L 535 775 L 533 773 L 533 771 L 532 770 L 532 769 L 531 768 L 531 767 L 530 766 L 530 765 L 529 765 L 528 764 L 527 765 L 525 765 L 524 764 L 521 764 L 520 765 Z" fill="#061E42" fill-rule="evenodd"/>
<path d="M 423 765 L 424 766 L 423 767 L 424 768 L 424 774 L 425 775 L 426 775 L 427 774 L 430 774 L 431 775 L 443 775 L 444 776 L 444 777 L 443 778 L 443 781 L 444 782 L 444 823 L 443 824 L 443 826 L 444 827 L 444 828 L 454 828 L 454 820 L 455 819 L 455 792 L 454 791 L 455 790 L 455 787 L 454 786 L 454 784 L 455 783 L 455 782 L 454 781 L 454 777 L 456 775 L 458 775 L 459 774 L 460 775 L 472 775 L 473 774 L 474 774 L 474 765 L 473 764 L 426 764 L 425 765 Z" fill="#061E42" fill-rule="evenodd"/>
<path d="M 341 764 L 339 766 L 339 784 L 340 785 L 339 786 L 339 791 L 340 792 L 340 799 L 339 800 L 339 815 L 340 816 L 340 817 L 339 818 L 339 821 L 340 822 L 340 825 L 339 826 L 339 827 L 340 828 L 350 828 L 350 825 L 351 824 L 351 817 L 350 816 L 351 815 L 351 811 L 350 810 L 350 806 L 351 805 L 351 793 L 350 792 L 350 791 L 351 790 L 351 789 L 350 788 L 352 785 L 354 787 L 354 788 L 357 791 L 357 792 L 362 797 L 362 798 L 365 801 L 365 802 L 368 805 L 368 806 L 372 810 L 372 811 L 380 820 L 380 821 L 382 823 L 382 824 L 386 828 L 396 828 L 396 765 L 394 765 L 393 764 L 388 764 L 387 765 L 385 765 L 385 806 L 384 807 L 381 804 L 381 803 L 377 799 L 377 798 L 374 795 L 374 794 L 370 790 L 370 789 L 367 786 L 367 785 L 363 781 L 363 780 L 361 778 L 361 777 L 351 766 L 351 765 L 347 765 L 346 764 Z" fill="#061E42" fill-rule="evenodd"/>
<path d="M 275 764 L 274 765 L 274 766 L 272 768 L 272 769 L 270 772 L 270 774 L 269 775 L 269 776 L 268 777 L 268 778 L 267 779 L 267 780 L 266 781 L 266 782 L 264 785 L 264 787 L 263 788 L 263 789 L 262 790 L 262 791 L 260 794 L 260 796 L 259 797 L 259 798 L 258 799 L 258 800 L 256 803 L 256 805 L 255 806 L 255 807 L 254 808 L 254 809 L 253 810 L 253 811 L 252 812 L 252 813 L 250 816 L 250 818 L 248 821 L 248 823 L 246 825 L 246 828 L 257 828 L 258 827 L 258 826 L 260 823 L 260 821 L 262 819 L 262 817 L 264 814 L 264 812 L 266 810 L 266 809 L 267 808 L 267 806 L 268 805 L 268 804 L 269 803 L 269 802 L 271 799 L 271 797 L 272 796 L 272 795 L 273 794 L 273 793 L 275 790 L 275 788 L 276 787 L 276 786 L 277 785 L 277 784 L 279 781 L 282 784 L 282 786 L 284 788 L 284 790 L 285 791 L 285 793 L 286 794 L 286 795 L 288 798 L 288 800 L 289 801 L 289 802 L 290 803 L 290 804 L 292 807 L 292 809 L 293 810 L 293 811 L 294 812 L 294 813 L 296 816 L 296 818 L 298 820 L 298 822 L 299 823 L 299 825 L 301 827 L 301 828 L 313 828 L 313 826 L 312 825 L 312 824 L 310 822 L 310 821 L 309 820 L 309 818 L 308 817 L 308 816 L 307 815 L 307 814 L 306 813 L 306 812 L 304 809 L 304 807 L 303 806 L 303 804 L 301 802 L 301 800 L 300 799 L 300 798 L 299 797 L 299 796 L 297 793 L 297 791 L 295 789 L 295 786 L 293 784 L 293 782 L 292 781 L 292 780 L 291 779 L 291 778 L 289 775 L 289 773 L 287 770 L 287 768 L 285 766 L 285 765 L 279 765 L 278 764 Z" fill="#061E42" fill-rule="evenodd"/>
<path d="M 163 765 L 163 766 L 164 767 L 164 769 L 166 771 L 166 773 L 167 774 L 167 776 L 168 777 L 168 778 L 170 781 L 170 783 L 171 784 L 171 785 L 172 786 L 172 787 L 174 790 L 174 792 L 175 793 L 175 795 L 176 796 L 176 797 L 178 800 L 178 802 L 180 804 L 180 807 L 181 808 L 181 809 L 182 810 L 182 811 L 184 814 L 184 816 L 186 819 L 186 821 L 187 822 L 187 823 L 188 824 L 188 825 L 189 826 L 189 827 L 190 828 L 200 828 L 201 827 L 201 826 L 203 824 L 203 822 L 204 821 L 204 819 L 205 818 L 205 817 L 207 815 L 207 813 L 208 812 L 208 811 L 210 808 L 210 806 L 212 803 L 212 801 L 213 800 L 213 799 L 214 798 L 214 797 L 216 794 L 216 792 L 217 791 L 217 790 L 219 787 L 219 785 L 221 782 L 221 780 L 223 778 L 223 776 L 224 775 L 224 774 L 225 773 L 225 772 L 226 771 L 226 770 L 228 767 L 228 765 L 227 765 L 226 764 L 218 764 L 217 765 L 216 765 L 216 766 L 214 768 L 214 770 L 212 773 L 212 775 L 211 776 L 211 777 L 210 778 L 210 779 L 208 782 L 208 784 L 207 785 L 207 786 L 206 787 L 206 788 L 204 791 L 204 793 L 203 794 L 203 795 L 201 798 L 201 800 L 200 801 L 200 802 L 198 805 L 198 807 L 197 808 L 197 809 L 195 811 L 194 810 L 194 809 L 192 806 L 192 804 L 191 803 L 191 802 L 189 799 L 189 797 L 187 794 L 187 792 L 185 790 L 185 787 L 184 786 L 184 785 L 182 782 L 182 780 L 181 779 L 181 778 L 179 775 L 179 773 L 178 772 L 178 771 L 177 770 L 177 768 L 175 766 L 175 765 L 174 764 L 166 764 L 165 765 Z" fill="#061E42" fill-rule="evenodd"/>
<path d="M 865 469 L 848 453 L 837 446 L 823 440 L 806 436 L 763 436 L 728 491 L 797 491 L 815 499 L 825 511 L 829 521 L 829 537 L 824 550 L 815 561 L 799 570 L 680 571 L 598 704 L 661 704 L 709 626 L 809 625 L 833 617 L 857 600 L 868 587 L 876 574 L 883 556 L 886 536 L 885 513 L 881 497 L 875 484 Z" fill="#061E42" fill-rule="evenodd"/>
<path d="M 385 278 L 388 287 L 427 357 L 518 530 L 596 672 L 728 462 L 743 435 L 666 436 L 609 523 L 483 278 Z" fill="#061E42" fill-rule="evenodd"/>
<path d="M 869 211 L 818 232 L 813 233 L 808 236 L 805 236 L 803 238 L 800 238 L 798 240 L 796 240 L 788 244 L 785 244 L 782 246 L 780 246 L 778 248 L 773 249 L 768 252 L 765 252 L 763 254 L 755 256 L 753 258 L 751 258 L 748 260 L 773 274 L 773 277 L 765 287 L 765 289 L 757 299 L 750 311 L 733 335 L 732 338 L 722 351 L 721 354 L 718 357 L 718 359 L 714 363 L 714 365 L 710 369 L 679 417 L 755 417 L 763 406 L 769 395 L 778 383 L 780 378 L 793 360 L 797 352 L 802 346 L 825 310 L 831 303 L 836 307 L 838 307 L 843 311 L 850 314 L 853 317 L 859 319 L 860 304 L 861 303 L 860 302 L 861 301 L 861 290 L 862 289 L 864 260 L 865 259 L 865 246 L 867 239 L 867 225 L 868 224 L 868 216 L 869 215 L 868 213 Z" fill="#061E42" fill-rule="evenodd"/>
<path d="M 980 914 L 1094 914 L 1094 912 L 1095 911 L 1094 910 L 1093 910 L 1092 909 L 1090 909 L 1089 910 L 989 910 L 988 909 L 987 910 L 984 910 L 983 909 L 981 909 L 980 910 Z" fill="#C8102E" fill-rule="evenodd"/>
<path d="M 162 910 L 162 913 L 163 914 L 276 914 L 277 913 L 277 911 L 275 909 L 273 909 L 272 910 L 271 910 L 270 909 L 268 909 L 267 910 L 167 910 L 166 909 L 165 910 Z" fill="#C8102E" fill-rule="evenodd"/>
<path d="M 384 875 L 381 875 L 380 874 L 374 874 L 373 873 L 369 873 L 368 872 L 365 872 L 364 871 L 362 871 L 361 870 L 358 870 L 357 869 L 356 869 L 355 868 L 353 868 L 352 867 L 351 867 L 350 866 L 349 866 L 348 865 L 347 865 L 346 866 L 345 866 L 344 867 L 342 867 L 341 868 L 339 868 L 338 869 L 336 869 L 335 870 L 332 870 L 331 871 L 329 871 L 328 872 L 324 872 L 323 873 L 319 873 L 318 874 L 314 874 L 313 875 L 307 875 L 306 876 L 306 877 L 307 878 L 307 879 L 308 880 L 308 881 L 309 882 L 309 885 L 310 886 L 310 900 L 309 901 L 309 905 L 310 906 L 311 906 L 312 907 L 313 907 L 313 906 L 314 905 L 314 903 L 315 902 L 315 894 L 316 893 L 316 890 L 315 889 L 315 883 L 314 882 L 314 881 L 315 880 L 319 880 L 320 879 L 325 879 L 326 878 L 329 878 L 330 877 L 333 877 L 334 876 L 336 876 L 337 875 L 340 875 L 341 874 L 342 874 L 343 873 L 345 873 L 346 872 L 349 872 L 350 873 L 352 873 L 353 874 L 354 874 L 355 875 L 357 875 L 358 876 L 361 876 L 362 877 L 367 877 L 368 878 L 377 878 L 378 877 L 382 877 Z" fill="#C8102E" fill-rule="evenodd"/>
</svg>
